<svg width="37" height="42" viewBox="0 0 37 42" fill="none" xmlns="http://www.w3.org/2000/svg">
<g id="Edit">
<path id="Vector" d="M8.7217 32.1673C8.80212 32.1673 8.88254 32.1582 8.96296 32.1446L15.7264 30.8028C15.8068 30.7846 15.8832 30.7437 15.9395 30.6755L32.9847 11.3952C33.022 11.3531 33.0515 11.3032 33.0717 11.2481C33.0919 11.1931 33.1023 11.1341 33.1023 11.0746C33.1023 11.015 33.0919 10.956 33.0717 10.901C33.0515 10.846 33.022 10.796 32.9847 10.7539L26.3017 3.19007C26.2253 3.10365 26.1248 3.05817 26.0162 3.05817C25.9077 3.05817 25.8071 3.10365 25.7307 3.19007L8.68551 22.4703C8.6252 22.5386 8.58901 22.6204 8.57292 22.7114L7.38671 30.3616C7.3476 30.6053 7.36157 30.8561 7.42744 31.0922C7.4933 31.3284 7.60906 31.5429 7.76469 31.717C8.03008 32.0081 8.36383 32.1673 8.7217 32.1673V32.1673ZM11.4319 24.2351L26.0162 7.74292L28.9636 11.0768L14.3793 27.569L10.8046 28.2831L11.4319 24.2351V24.2351ZM33.7447 35.9879H4.14977C3.43805 35.9879 2.86304 36.6383 2.86304 37.4434V39.0807C2.86304 39.2809 3.00779 39.4446 3.18472 39.4446H34.7097C34.8866 39.4446 35.0314 39.2809 35.0314 39.0807V37.4434C35.0314 36.6383 34.4564 35.9879 33.7447 35.9879Z" fill="#B0DBE4"/>
</g>
</svg>
