<svg width="37" height="42" viewBox="0 0 37 42" fill="none" xmlns="http://www.w3.org/2000/svg">
<g id="DeleteOutlined">
<path id="Vector" d="M12.873 6.33295H12.5513C12.7283 6.33295 12.873 6.16921 12.873 5.96908V6.33295H25.097V5.96908C25.097 6.16921 25.2418 6.33295 25.4187 6.33295H25.097V9.60773H27.9922V5.96908C27.9922 4.36353 26.8381 3.05817 25.4187 3.05817H12.5513C11.1319 3.05817 9.97786 4.36353 9.97786 5.96908V9.60773H12.873V6.33295ZM33.1391 9.60773H4.83092C4.1192 9.60773 3.54419 10.2581 3.54419 11.0632V12.5186C3.54419 12.7188 3.68895 12.8825 3.86587 12.8825H6.29459L7.28778 36.6701C7.35212 38.2211 8.48606 39.4446 9.85723 39.4446H28.1128C29.488 39.4446 30.6179 38.2257 30.6822 36.6701L31.6754 12.8825H34.1041C34.2811 12.8825 34.4258 12.7188 34.4258 12.5186V11.0632C34.4258 10.2581 33.8508 9.60773 33.1391 9.60773ZM27.8032 36.1698H10.1669L9.19376 12.8825H28.7763L27.8032 36.1698Z" fill="#E59452"/>
</g>
</svg>
