<svg width="20" height="19" viewBox="0 0 20 19" fill="none" xmlns="http://www.w3.org/2000/svg">
<path id="Shape" fill-rule="evenodd" clip-rule="evenodd" d="M6.79993 14.6939C6.79993 14.7684 6.71432 14.8279 6.60638 14.8279C6.48356 14.8391 6.39795 14.7795 6.39795 14.6939C6.39795 14.6195 6.48356 14.5599 6.59149 14.5599C6.70316 14.5488 6.79993 14.6083 6.79993 14.6939ZM5.64242 14.5263C5.61637 14.6007 5.69081 14.6863 5.80247 14.7086C5.89924 14.7459 6.0109 14.7086 6.03323 14.6342C6.05556 14.5598 5.98485 14.4742 5.87319 14.4407C5.77641 14.4146 5.66847 14.4518 5.64242 14.5263V14.5263ZM7.28755 14.4628C7.17962 14.4888 7.10518 14.5596 7.11634 14.6452C7.12751 14.7196 7.22428 14.768 7.33594 14.7419C7.44388 14.7159 7.51832 14.6452 7.50715 14.5707C7.49599 14.5 7.39549 14.4516 7.28755 14.4628ZM9.73664 0.200195C4.57419 0.200195 0.625122 4.11949 0.625122 9.28194C0.625122 13.4097 3.2231 16.9419 6.93396 18.185C7.41038 18.2706 7.57787 17.9766 7.57787 17.7347C7.57787 17.5039 7.5667 16.231 7.5667 15.4493C7.5667 15.4493 4.96128 16.0076 4.41415 14.3402C4.41415 14.3402 3.98983 13.2571 3.37942 12.9779C3.37942 12.9779 2.52708 12.3936 3.43897 12.4047C3.43897 12.4047 4.36576 12.4792 4.87568 13.365C5.6908 14.8017 7.05678 14.3886 7.58903 14.1429C7.67464 13.5474 7.91657 13.1342 8.18456 12.8886C6.10395 12.6578 4.00472 12.3563 4.00472 8.77574C4.00472 7.75219 4.2876 7.23855 4.88312 6.58347C4.78635 6.34154 4.46998 5.34404 4.97989 4.05622C5.7578 3.81428 7.54809 5.06116 7.54809 5.06116C8.2925 4.85273 9.09273 4.74479 9.88553 4.74479C10.6783 4.74479 11.4786 4.85273 12.223 5.06116C12.223 5.06116 14.0133 3.81056 14.7912 4.05622C15.3011 5.34776 14.9847 6.34154 14.8879 6.58347C15.4835 7.24227 15.8482 7.75591 15.8482 8.77574C15.8482 12.3675 13.6559 12.6541 11.5753 12.8886C11.9178 13.1826 12.2081 13.7409 12.2081 14.6156C12.2081 15.8699 12.1969 17.422 12.1969 17.7272C12.1969 17.9692 12.3681 18.2632 12.8408 18.1776C16.5628 16.9419 19.0864 13.4097 19.0864 9.28194C19.0864 4.11949 14.8991 0.200195 9.73664 0.200195ZM4.2429 13.0374C4.19451 13.0747 4.20567 13.1603 4.26895 13.231C4.3285 13.2905 4.41411 13.3166 4.46249 13.2682C4.51088 13.231 4.49972 13.1454 4.43644 13.0747C4.37689 13.0151 4.29128 12.989 4.2429 13.0374ZM3.84093 12.736C3.81488 12.7844 3.8521 12.8439 3.92654 12.8812C3.98609 12.9184 4.06053 12.9072 4.08659 12.8551C4.11264 12.8067 4.07542 12.7472 4.00098 12.7099C3.92654 12.6876 3.86699 12.6988 3.84093 12.736ZM5.04687 14.061C4.98731 14.1094 5.00965 14.2211 5.09525 14.2918C5.18086 14.3774 5.2888 14.3886 5.33718 14.329C5.38557 14.2806 5.36324 14.169 5.2888 14.0982C5.20691 14.0126 5.09525 14.0015 5.04687 14.061ZM4.62255 13.5139C4.56299 13.5511 4.56299 13.6479 4.62255 13.7335C4.6821 13.8191 4.78259 13.8563 4.83098 13.8191C4.89053 13.7707 4.89053 13.6739 4.83098 13.5883C4.77887 13.5027 4.6821 13.4655 4.62255 13.5139V13.5139Z" fill="black"/>
</svg>
