<svg width="19" height="19" viewBox="0 0 19 19" fill="none" xmlns="http://www.w3.org/2000/svg">
<g id="icons8-google">
<mask id="mask0_1_43" style="mask-type:luminance" maskUnits="userSpaceOnUse" x="0" y="0" width="19" height="19">
<rect id="Background" x="0.625" y="0.700195" width="18" height="18" fill="white"/>
</mask>
<g mask="url(#mask0_1_43)">
<path id="Shape" fill-rule="evenodd" clip-rule="evenodd" d="M16.9791 8.23132H16.375V8.2002H9.625V11.2002H13.8636C13.2453 12.9466 11.5836 14.2002 9.625 14.2002C7.13988 14.2002 5.125 12.1853 5.125 9.7002C5.125 7.21507 7.13988 5.2002 9.625 5.2002C10.7721 5.2002 11.8158 5.63295 12.6104 6.33982L14.7317 4.21845C13.3923 2.97007 11.6005 2.2002 9.625 2.2002C5.48313 2.2002 2.125 5.55832 2.125 9.7002C2.125 13.8421 5.48313 17.2002 9.625 17.2002C13.7669 17.2002 17.125 13.8421 17.125 9.7002C17.125 9.19732 17.0732 8.70645 16.9791 8.23132Z" fill="#FFC107"/>
<path id="Shape_2" fill-rule="evenodd" clip-rule="evenodd" d="M2.98975 6.20932L5.45387 8.01645C6.12062 6.36569 7.73537 5.2002 9.625 5.2002C10.7721 5.2002 11.8157 5.63295 12.6104 6.33982L14.7317 4.21845C13.3922 2.97007 11.6005 2.2002 9.625 2.2002C6.74425 2.2002 4.246 3.82657 2.98975 6.20932Z" fill="#FF3D00"/>
<path id="Shape_3" fill-rule="evenodd" clip-rule="evenodd" d="M9.62499 17.2002C11.5622 17.2002 13.3225 16.4588 14.6534 15.2532L12.3321 13.289C11.5791 13.8593 10.6431 14.2002 9.62499 14.2002C7.67424 14.2002 6.01787 12.9563 5.39387 11.2205L2.94812 13.1048C4.18937 15.5337 6.71012 17.2002 9.62499 17.2002Z" fill="#4CAF50"/>
<path id="Shape_4" fill-rule="evenodd" clip-rule="evenodd" d="M16.9791 8.23132H16.375V8.2002H9.625V11.2002H13.8636C13.5666 12.0391 13.027 12.7624 12.331 13.2893C12.3314 13.2889 12.3318 13.2889 12.3321 13.2886L14.6534 15.2528C14.4891 15.4021 17.125 13.4502 17.125 9.7002C17.125 9.19732 17.0732 8.70645 16.9791 8.23132Z" fill="#1976D2"/>
</g>
</g>
</svg>
